<svg width="26" height="26" viewBox="0 0 26 26" fill="none" xmlns="http://www.w3.org/2000/svg">
<path d="M3.5 18.5H6.5C6.925 18.5 7.2815 18.644 7.5695 18.932C7.8575 19.22 8.001 19.576 8 20C7.999 20.424 7.855 20.7805 7.568 21.0695C7.281 21.3585 6.925 21.502 6.5 21.5H2C1.575 21.5 1.219 21.356 0.932 21.068C0.645 20.78 0.501 20.424 0.5 20V15.5C0.5 15.075 0.644 14.719 0.932 14.432C1.22 14.145 1.576 14.001 2 14C2.424 13.999 2.7805 14.143 3.0695 14.432C3.3585 14.721 3.502 15.077 3.5 15.5V18.5ZM3.5 3.5V6.5C3.5 6.925 3.356 7.2815 3.068 7.5695C2.78 7.8575 2.424 8.001 2 8C1.576 7.999 1.22 7.855 0.932 7.568C0.644 7.281 0.5 6.925 0.5 6.5V2C0.5 1.575 0.644 1.219 0.932 0.932C1.22 0.645 1.576 0.501 2 0.5H6.5C6.925 0.5 7.2815 0.644 7.5695 0.932C7.8575 1.22 8.001 1.576 8 2C7.999 2.424 7.855 2.7805 7.568 3.0695C7.281 3.3585 6.925 3.502 6.5 3.5H3.5ZM18.5 3.5H15.5C15.075 3.5 14.719 3.356 14.432 3.068C14.145 2.78 14.001 2.424 14 2C13.999 1.576 14.143 1.22 14.432 0.932C14.721 0.644 15.077 0.5 15.5 0.5H20C20.425 0.5 20.7815 0.644 21.0695 0.932C21.3575 1.22 21.501 1.576 21.5 2V6.5C21.5 6.925 21.356 7.2815 21.068 7.5695C20.78 7.8575 20.424 8.001 20 8C19.576 7.999 19.22 7.855 18.932 7.568C18.644 7.281 18.5 6.925 18.5 6.5V3.5ZM18.5 21.5H15.5C15.075 21.5 14.719 21.356 14.432 21.068C14.145 20.78 14.001 20.424 14 20C13.999 19.576 14.143 19.22 14.432 18.932C14.721 18.644 15.077 18.5 15.5 18.5H18.5V15.5C18.5 15.075 18.644 14.719 18.932 14.432C19.22 14.145 19.576 14.001 20 14C20.424 13.999 20.7805 14.143 21.0695 14.432C21.3585 14.721 21.502 15.077 21.5 15.5V18.5H24.5C24.925 18.5 25.2815 18.644 25.5695 18.932C25.8575 19.22 26.001 19.576 26 20C25.999 20.424 25.855 20.7805 25.568 21.0695C25.281 21.3585 24.925 21.502 24.5 21.5H21.5V24.5C21.5 24.925 21.356 25.2815 21.068 25.5695C20.78 25.8575 20.424 26.001 20 26C19.576 25.999 19.22 25.855 18.932 25.568C18.644 25.281 18.5 24.925 18.5 24.5V21.5Z" fill="black"/>
</svg>
